#!OML:ASF H:\Terrain\Walking\May29\JustinRory\Justin.ASF
:FULLY-SPECIFIED
:DEGREES
38
root 12.4268 17.2995 3.73837 -152.894 -69.9995 158.433
lowerback 11.9411 -2.52668 -5.66183
upperback 4.20136 -4.1557 5.22324
thorax -1.45091 -2.30501 9.29158
lowerneck 0.468156 -15.6096 -19.2235
upperneck 14.0809 -23.6863 15.589
head 8.46165 -11.7086 5.66217
rclavicle -1.43125e-014 -7.95139e-015
rhumerus 1.15968 -27.5316 -51.1228
rradius 26.9461
rwrist -17.0899
rhand -9.56128 31.0386
rfingers 7.12502
rthumb 16.4061 1.7124
lclavicle -1.43125e-014 -7.95139e-015
lhumerus -19.718 -19.5055 93.7416
lradius 50.6415
lwrist -5.83363
lhand -2.07 35.2091
lfingers 7.12502
lthumb 23.6063 63.7801
rfemur -21.5631 2.38838 -7.31299
rtibia 22.1864
rfoot -11.3461 -13.4816
rtoes -8.56422
lfemur -13.5174 13.1019 -20.4381
ltibia 34.8474
lfoot -20.696 6.44316
ltoes -11.4245
39
root 12.4479 17.2663 3.66656 -152.118 -69.6944 157.583
lowerback 12.3782 -2.35484 -5.51276
upperback 4.36839 -3.94103 5.13498
thorax -1.57378 -2.20002 9.11061
lowerneck 0.338778 -15.7301 -19.0912
upperneck 13.6155 -23.7658 15.801
head 8.35678 -11.7179 5.69202
rclavicle 2.54444e-014 -3.49861e-014
rhumerus 1.65226 -28.087 -50.9205
rradius 26.8519
rwrist -16.6245
rhand -10.1625 30.5677
rfingers 7.12502
rthumb 15.8272 1.19466
lclavicle 2.54444e-014 -3.49861e-014
lhumerus -19.3439 -21.2528 93.8693
lradius 51.6636
lwrist -5.8696
lhand -2.50964 35.2829
lfingers 7.12502
lthumb 23.1845 63.9076
rfemur -21.868 2.25327 -7.66249
rtibia 22.4842
rfoot -10.4781 -11.7614
rtoes -10.793
lfemur -13.7075 13.4513 -20.5678
ltibia 35.3986
lfoot -20.6288 6.44091
ltoes -13.6091
40
root 12.4609 17.254 3.59719 -152.222 -69.8266 157.519
lowerback 12.9061 -2.0945 -4.62224
upperback 4.56788 -3.52402 4.98517
thorax -1.80275 -1.98372 8.40722
lowerneck 0.265314 -16.1357 -18.3083
upperneck 13.2584 -24.261 15.7484
head 8.23483 -11.9103 5.48477
rclavicle 8.74653e-015 -8.5875e-014
rhumerus 1.54228 -29.6284 -50.5756
rradius 26.7772
rwrist -15.8831
rhand -8.84906 30.678
rfingers 7.12502
rthumb 17.0917 1.40978
lclavicle 8.74653e-015 -8.5875e-014
lhumerus -18.912 -23.972 94.0714
lradius 52.6655
lwrist -5.75226
lhand -3.12427 35.4903
lfingers 7.12502
lthumb 22.5947 64.188
rfemur -21.9263 1.91356 -7.46155
rtibia 23.0678
rfoot -8.99169 -9.96633
rtoes -15.1984
lfemur -13.7075 13.8121 -20.1717
ltibia 35.8792
lfoot -20.7464 6.06728
ltoes -14.243
41
root 12.4805 17.236 3.51812 -151.553 -69.7952 156.81
lowerback 13.6807 -1.97926 -4.20142
upperback 4.43154 -3.33123 4.88875
thorax -2.4335 -1.85276 8.092
lowerneck 0.264678 -16.2869 -18.1397
upperneck 13.2761 -24.4723 15.6767
head 8.24688 -12.0028 5.40197
rclavicle 3.97569e-014 4.77083e-015
rhumerus 1.41608 -30.0478 -50.1975
rradius 26.8107
rwrist -15.9357
rhand -8.13639 30.2098
rfingers 7.12502
rthumb 17.7776 1.00244
lclavicle 3.97569e-014 4.77083e-015
lhumerus -18.92 -25.8533 94.4948
lradius 53.5849
lwrist -5.91764
lhand -3.63578 35.2788
lfingers 7.12502
lthumb 22.1037 64.0354
rfemur -22.3325 1.41055 -7.47477
rtibia 23.8952
rfoot -7.44614 -8.26009
rtoes -18.3052
lfemur -13.9308 14.0761 -20.119
ltibia 36.2881
lfoot -20.7198 6.0014
ltoes -15.7001
42
root 12.5043 17.2015 3.43534 -149.983 -69.3808 155.246
lowerback 14.4774 -1.85414 -4.42386
upperback 4.1902 -3.20052 4.74439
thorax -3.13749 -1.74602 8.11084
lowerneck 0.47913 -16.274 -18.1859
upperneck 13.0855 -24.4623 15.7301
head 8.15854 -12.0117 5.44911
rclavicle 2.70347e-014 -6.52014e-014
rhumerus 1.11269 -29.1511 -49.7178
rradius 27.4906
rwrist -16.9114
rhand -9.94651 30.0636
rfingers 7.12502
rthumb 16.0352 0.707212
lclavicle 2.70347e-014 -6.52014e-014
lhumerus -19.1009 -27.4406 94.9609
lradius 54.7016
lwrist -6.20835
lhand -3.83021 35.5763
lfingers 7.12502
lthumb 21.917 64.3549
rfemur -23.2011 1.0304 -8.02261
rtibia 24.994
rfoot -6.81463 -7.25152
rtoes -16.7301
lfemur -14.2356 14.2945 -20.5806
ltibia 36.6121
lfoot -20.6193 6.20019
ltoes -17.6992
43
root 12.5357 17.1778 3.37635 -149.168 -68.8927 154.849
lowerback 14.9331 -1.72514 -4.25086
upperback 3.99778 -3.00403 4.73238
thorax -3.6317 -1.61928 8.00573
lowerneck 0.510086 -16.3133 -18.2252
upperneck 12.7342 -24.4414 15.7527
head 8.04214 -12.0038 5.47249
rclavicle -9.30312e-014 2.22639e-014
rhumerus 1.0008 -28.1361 -49.2932
rradius 28.8625
rwrist -19
rhand -9.73943 29.5662
rfingers 7.12502
rthumb 16.2346 0.225956
lclavicle -9.30312e-014 2.22639e-014
lhumerus -18.9534 -29.0806 95.3874
lradius 56.0548
lwrist -6.25184
lhand -3.55242 36.2207
lfingers 7.12502
lthumb 22.1837 64.9678
rfemur -24.7393 0.281701 -8.17949
rtibia 26.2416
rfoot -6.55389 -6.92967
rtoes -16.3693
lfemur -14.9578 14.379 -20.8614
ltibia 36.9745
lfoot -20.6088 6.4133
ltoes -17.8041
44
root 12.5684 17.1672 3.30647 -149.136 -68.708 155.201
lowerback 15.4901 -1.75072 -3.82179
upperback 3.87961 -2.98021 4.87883
thorax -4.07703 -1.59138 7.95616
lowerneck 0.381219 -16.2981 -18.5907
upperneck 12.4967 -24.3786 16.0188
head 8.05946 -11.9672 5.60155
rclavicle 1.59028e-014 -3.18055e-015
rhumerus 1.154 -27.198 -49.1684
rradius 30.6025
rwrist -21.9554
rhand -7.67416 29.5911
rfingers 7.12502
rthumb 18.2223 0.424655
lclavicle 1.59028e-014 -3.18055e-015
lhumerus -18.5246 -30.0748 95.7736
lradius 57.1363
lwrist -6.22824
lhand -3.34297 36.2082
lfingers 7.12502
lthumb 22.3848 64.9313
rfemur -26.1324 -0.622373 -7.69286
rtibia 27.5499
rfoot -6.13877 -6.84564
rtoes -20.2639
lfemur -15.5024 14.3068 -20.6261
ltibia 37.2343
lfoot -20.6538 6.56246
ltoes -17.0667
45
root 12.6041 17.1389 3.25816 -149.171 -67.4725 155.89
lowerback 15.6263 -1.44233 -3.71321
upperback 3.89373 -2.56284 4.71833
thorax -4.21677 -1.37862 7.65168
lowerneck 0.258741 -16.3171 -18.4199
upperneck 11.9533 -24.3308 16.3687
head 7.92145 -11.9173 5.6964
rclavicle -4.69132e-014 6.36111e-015
rhumerus 1.28307 -26.7552 -49.4892
rradius 32.5728
rwrist -24.1826
rhand -5.19631 30.6513
rfingers 7.12502
rthumb 20.6048 1.72495
lclavicle -4.69132e-014 6.36111e-015
lhumerus -17.7242 -31.2068 95.9016
lradius 58.0463
lwrist -5.94207
lhand -3.64181 36.4768
lfingers 7.12502
lthumb 22.0979 65.2341
rfemur -28.5591 -1.4552 -7.60105
rtibia 28.9153
rfoot -5.11567 -5.46311
rtoes -21.3222
lfemur -16.3372 14.7302 -21.0449
ltibia 37.4916
lfoot -20.8295 7.22166
ltoes -16.1262
46
root 12.624 17.1217 3.17368 -147.656 -66.9367 154.718
lowerback 15.4411 -1.37312 -4.16983
upperback 4.15067 -2.55853 4.57895
thorax -3.8295 -1.39901 7.74203
lowerneck 0.000295787 -16.3175 -17.9851
upperneck 11.1957 -24.1769 16.6679
head 7.67878 -11.8059 5.7539
rclavicle 7.95139e-016 4.29375e-014
rhumerus 1.45074 -26.4614 -50.0539
rradius 34.9065
rwrist -25.9238
rhand -4.18436 31.7886
rfingers 7.12502
rthumb 21.5769 2.97066
lclavicle 7.95139e-016 4.29375e-014
lhumerus -16.5384 -32.7407 95.7706
lradius 59.1557
lwrist -5.19937
lhand -3.95809 37.1278
lfingers 7.12502
lthumb 21.7942 65.9207
rfemur -30.1808 -1.8969 -7.94636
rtibia 30.4817
rfoot -4.82888 -4.5304
rtoes -17.1
lfemur -16.6988 14.6045 -21.5015
ltibia 37.5096
lfoot -21.021 6.92064
ltoes -12.7848
